<svg xmlns="http://www.w3.org/2000/svg" xmlns:xlink="http://www.w3.org/1999/xlink" width="691.781" height="149.969" viewBox="0 0 691.781 149.969">
  <metadata><?xpacket begin="﻿" id="W5M0MpCehiHzreSzNTczkc9d"?>
<x:xmpmeta xmlns:x="adobe:ns:meta/" x:xmptk="Adobe XMP Core 5.6-c142 79.160924, 2017/07/13-01:06:39        ">
   <rdf:RDF xmlns:rdf="http://www.w3.org/1999/02/22-rdf-syntax-ns#">
      <rdf:Description rdf:about=""/>
   </rdf:RDF>
</x:xmpmeta>
                                                                                                    
                                                                                                    
                                                                                                    
                                                                                                    
                                                                                                    
                                                                                                    
                                                                                                    
                                                                                                    
                                                                                                    
                                                                                                    
                                                                                                    
                                                                                                    
                                                                                                    
                                                                                                    
                                                                                                    
                                                                                                    
                                                                                                    
                                                                                                    
                                                                                                    
                                                                                                    
                           
<?xpacket end="w"?></metadata>
<defs>
    <style>
      .cls-1, .cls-2 {
        fill: #e7b072;
        fill-rule: evenodd;
      }

      .cls-1 {
        filter: url(#filter);
      }

      .cls-2 {
        filter: url(#filter-2);
      }
    </style>
    <filter id="filter" x="524.219" y="402.563" width="691.781" height="60.875" filterUnits="userSpaceOnUse">
      <feFlood result="flood" flood-color="#fff"/>
      <feComposite result="composite" operator="in" in2="SourceGraphic"/>
      <feBlend result="blend" in2="SourceGraphic"/>
    </filter>
    <filter id="filter-2" x="660.281" y="313.469" width="418.779" height="60.906" filterUnits="userSpaceOnUse">
      <feFlood result="flood" flood-color="#fff"/>
      <feComposite result="composite" operator="in" in2="SourceGraphic"/>
      <feBlend result="blend" in2="SourceGraphic"/>
    </filter>
  </defs>
  <path id="Technologies_Pvt_Ltd_copy" data-name="Technologies Pvt Ltd copy" class="cls-1" d="M527.426,402.548l-3.2,11.34h8.164v49.559h12.455V413.888h8.163l-3.029-11.34H527.426Zm34,60.9h23.228l2.1-11.34H573.966V438.836h10.1v-10.5h-10.1V413.888h13.3l-2.1-11.34H561.426v60.9Zm58.237,0,2.188-11.34h-11.7a0.973,0.973,0,0,1-1.094-1.176V415.064a0.973,0.973,0,0,1,1.094-1.176h11.7l-2.1-11.34H603.673c-4.039,0-7.153,2.688-7.153,7.476v44.015c0,6.72,2.524,9.408,9.51,9.408h13.633Zm43.005-60.9H650.212v26.04h-6.648v-26.04H631.109v60.9h12.455V439.088h6.648v24.359h12.456v-60.9Zm10.1,60.9h11.277V438l6.564,25.451h12.54v-60.9h-12.54v24.444l-6.228-24.444H672.767v60.9Zm58.657-50.231a0.972,0.972,0,0,1,1.094,1.176v37.127c0,0.924-.168,1.26-1.178,1.26h-4.629c-1.01,0-1.178-.336-1.178-1.26V414.392a0.972,0.972,0,0,1,1.094-1.176h4.8Zm13.465-2.772c0-4.788-2.524-7.9-8.247-7.9H721.493c-5.722,0-8.247,3.108-8.247,7.9V454.8c0,4.62,1.936,8.652,8.752,8.652h14.139c6.817,0,8.752-4.032,8.752-8.652V410.444Zm10.1,53H777.71l2.1-11.34H767.527V402.548H754.988v60.9Zm51.841-50.231a0.973,0.973,0,0,1,1.094,1.176v37.127c0,0.924-.169,1.26-1.179,1.26h-4.628c-1.01,0-1.178-.336-1.178-1.26V414.392a0.972,0.972,0,0,1,1.094-1.176h4.8Zm13.465-2.772c0-4.788-2.525-7.9-8.248-7.9H796.9c-5.723,0-8.247,3.108-8.247,7.9V454.8c0,4.62,1.935,8.652,8.752,8.652h14.138c6.817,0,8.753-4.032,8.753-8.652V410.444Zm10.1,43.595c0,6.72,2.525,9.408,9.51,9.408h21.292V428.336H849.328v24.023h-5.555a0.973,0.973,0,0,1-1.094-1.176V415.064a0.973,0.973,0,0,1,1.094-1.176h13.381l-2.1-11.34H837.63c-4.8,0-7.238,2.94-7.238,7.392v44.1Zm40.648,9.408h12.2v-60.9h-12.2v60.9Zm22.3,0h23.228l2.1-11.34H905.88V438.836h10.1v-10.5h-10.1V413.888h13.3l-2.1-11.34H893.34v60.9Zm53.188,0c6.985,0,9.341-2.52,9.341-9.24V434.132c0-4.536-2.188-6.216-6.059-6.216h-7.658c-1.263,0-1.852-.336-1.852-1.6V415.232a1.258,1.258,0,0,1,1.515-1.344h13.8l-2.1-11.34H936.681c-5.722,0-8.247,3.108-8.247,7.9v20.664c0,6.048,3.2,6.888,6.817,6.888h6.312c1.683,0,2.272.084,2.272,1.764v11.087c0,0.924-.337,1.26-1.431,1.26H929.275l2.189,11.34h15.064ZM999.8,413.216a0.971,0.971,0,0,1,1.091,1.176v21.5c0,0.924-.17,1.26-1.175,1.26h-6.06v-23.94H999.8Zm-18.262-10.668v60.9h12.118V447.235h10.435c6.82,0,8.67-3.528,8.67-8.147V409.94c0-4.452-2.44-7.392-7.24-7.392H981.537Zm61.183,7.644-4.21,31.667-4.12-31.5-1.1-7.812h-12.37l11.28,60.9h12.71l11.27-60.9h-12.37Zm23.39-7.644-3.19,11.34h8.16v49.559h12.46V413.888h8.16l-3.03-11.34h-22.56Zm49.57,60.9h22.73l2.1-11.34h-12.29V402.548h-12.54v60.9Zm35.18-60.9-3.2,11.34h8.17v49.559h12.45V413.888h8.17l-3.03-11.34h-22.56Zm51.93,10.668a0.97,0.97,0,0,1,1.09,1.176v37.127c0,0.924-.17,1.26-1.18,1.26h-5.72V413.216h5.81ZM1216,409.94c0-4.452-2.44-7.392-7.24-7.392h-23.9v60.9h21.63c6.99,0,9.51-2.688,9.51-9.408v-44.1Z" transform="translate(-524.219 -313.469)"/>
  <path id="Twelve_Tiers_copy" data-name="Twelve Tiers copy" class="cls-2" d="M663.483,313.479l-3.2,11.339h8.163v49.559H680.9V324.818h8.164l-3.03-11.339H663.483Zm67.326,35.447-4.881-35.447h-8.837l-4.965,35.447-3.871-35.447H695.8l9.594,60.9H716.5l4.966-31.751,5.049,31.751h11.109l9.594-60.9H734.765Zm24.827,25.451h23.227l2.1-11.34H768.175V349.766h10.1v-10.5h-10.1V324.818h13.3l-2.1-11.339H755.636v60.9Zm35.093,0h22.723l2.1-11.34H803.269V313.479h-12.54v60.9Zm53.777-53.255L840.3,352.79l-4.124-31.5-1.094-7.811H822.709l11.277,60.9h12.708l11.277-60.9H845.6Zm21.881,53.255h23.227l2.1-11.34H878.926V349.766h10.1v-10.5h-10.1V324.818h13.3l-2.1-11.339H866.387v60.9Zm52.177-60.9-3.2,11.339h8.164v49.559h12.455V324.818h8.163l-3.029-11.339H918.564Zm34,60.9h12.2v-60.9h-12.2v60.9Zm22.3,0h23.228l2.107-11.34h-12.8V349.766h10.1v-10.5h-10.1V324.818h13.3l-2.1-11.339H974.865v60.9Zm53.275-50.231a1.084,1.084,0,0,1,1.17,1.26v18.48c0,0.924-.25,1.26-1.17,1.26h-5.98v-21h5.98Zm13.21-2.772c0-4.787-2.53-7.9-8.25-7.9h-23.14v60.9h12.2v-19.4h1.6l5.89,19.4h12.63l-6.4-19.4a5.277,5.277,0,0,0,5.47-5.376V321.374Zm28.36,53c6.99,0,9.34-2.52,9.34-9.24V345.062c0-4.536-2.19-6.216-6.06-6.216h-7.66c-1.26,0-1.85-.336-1.85-1.6V326.162a1.262,1.262,0,0,1,1.52-1.344h13.8l-2.1-11.339h-16.84c-5.72,0-8.24,3.108-8.24,7.9v20.664c0,6.048,3.19,6.888,6.81,6.888h6.32c1.68,0,2.27.084,2.27,1.764v11.087c0,0.924-.34,1.26-1.43,1.26h-13.13l2.19,11.34h15.06Z" transform="translate(-524.219 -313.469)"/>
</svg>
