<svg xmlns="http://www.w3.org/2000/svg" xmlns:xlink="http://www.w3.org/1999/xlink" width="218.094" height="220" viewBox="0 0 218.094 220">
  <metadata><?xpacket begin="﻿" id="W5M0MpCehiHzreSzNTczkc9d"?>
<x:xmpmeta xmlns:x="adobe:ns:meta/" x:xmptk="Adobe XMP Core 5.6-c142 79.160924, 2017/07/13-01:06:39        ">
   <rdf:RDF xmlns:rdf="http://www.w3.org/1999/02/22-rdf-syntax-ns#">
      <rdf:Description rdf:about=""/>
   </rdf:RDF>
</x:xmpmeta>
                                                                                                    
                                                                                                    
                                                                                                    
                                                                                                    
                                                                                                    
                                                                                                    
                                                                                                    
                                                                                                    
                                                                                                    
                                                                                                    
                                                                                                    
                                                                                                    
                                                                                                    
                                                                                                    
                                                                                                    
                                                                                                    
                                                                                                    
                                                                                                    
                                                                                                    
                                                                                                    
                           
<?xpacket end="w"?></metadata>
<defs>
    <style>
      .cls-1 {
        filter: url(#filter);
      }

      .cls-2 {
        fill: #e7b072;
      }

      .cls-2, .cls-3 {
        fill-rule: evenodd;
      }

      .cls-3 {
        fill: #fff;
      }
    </style>
    <filter id="filter" filterUnits="userSpaceOnUse">
      <feFlood result="flood" flood-color="#1966b9"/>
      <feComposite result="composite" operator="in" in2="SourceGraphic"/>
      <feBlend result="blend" in2="SourceGraphic"/>
    </filter>
  </defs>
  <g class="cls-1">
    <path class="cls-2" d="M287.111,311.207h48.3s14.022,7.022,10.906,14.044h-7.79s-1.818-4.942-6.232-4.682c0,0,6.232,27.047,31.159,31.208V339.294L343.2,329.932l23.369-14.044s25.446-4.681,24.927,12.483V365.82h3.116V323.69s3.9-5.721,9.348-7.8h17.137l21.811,15.6-20.253,7.8v12.483s22.071,1.82,31.159-31.208l-6.232,4.682h-9.348s3.635-14.564,17.138-14.044h43.622v3.121l-17.137,15.6H477.18l-3.116-7.8h-9.348v7.8l37.391,6.241-26.485,12.483-4.674-9.362h-7.79v6.241l37.391,15.6-26.485,7.8-3.116-10.923-10.9-4.681s-1.039,5.982-4.674,9.362l40.506,29.647-28.043,1.561V381.424L450.7,368.941l-6.232,6.241,34.275,43.691-24.927-1.561,1.558-9.362h3.116l-23.37-28.087-4.673,1.561,17.137,45.25L424.21,415.752l4.674-7.8L432,411.071l-9.348-26.527L413.3,404.829l9.348,17.164,23.369,12.483s22.071-18.984,29.6-7.8l-3.116,6.242h-7.79L477.18,437.6l-3.116,6.241-9.348-1.56,7.79,4.681-4.674,7.8L449.137,445.4H438.231L432,450.08l-7.79-3.121,7.79-7.8V437.6s-17.917-7.282-21.812-20.285L402.4,437.6l31.158,28.087h12.464l14.022-7.8,4.673,7.8s-7.789,7.281-21.811,9.362c0,0-14.541,1.56-21.811-7.8L397.725,445.4v3.121s25.706,23.405,18.695,32.767l-6.232,4.681-4.673-7.8s4.414-2.081,1.557-6.242L397.725,461v6.241l9.347,18.724-6.231,3.121-1.558-3.121h-1.558v14.044h-9.348V485.968l-3.116,4.682-6.232-4.682,9.348-18.724v-4.681s-16.618,12.223-7.79,15.6l-6.232,7.8s-10.905-9.1-3.115-18.724l17.137-18.724v-1.561S378.25,453.981,372.8,461c0,0-17.138,18.724-28.043,14.043,0,0-6.232,2.86-23.37-9.362l4.674-7.8,12.464,7.8h14.021L383.7,439.157l-6.232-21.845s-9.607,14.044-14.021,15.6L352.544,437.6s10.646,5.461,9.348,10.923l-7.79,1.56s-7.01-10.4-20.253-3.121l-15.579,7.8-4.674-7.8,7.789-4.681-9.347,1.56-4.674-7.8a49.559,49.559,0,0,1,14.021-1.561s-0.779-2.08-7.789-1.56l-3.116-7.8s14.8-5.461,28.043,9.362l21.811-10.922h1.558l9.348-14.044v-4.681l-7.79-20.285L354.1,409.51h4.674l3.116,6.242-23.369,10.922,17.137-45.25s-0.259-1.821-4.674-1.561L327.617,406.39l3.116,1.56v9.362l-23.369,1.561,34.275-42.13v-1.561l-4.674-4.681h-3.116l-18.695,12.483,3.116,1.56v9.363l-26.486-1.561L330.733,362.7s-5.193-6.761-4.674-9.362l-14.021,4.681,1.558,10.923-28.043-7.8,37.39-15.6v-6.241H313.6s2.077,7.8-3.116,9.362L284,336.173l37.39-6.241v-7.8l-12.463-1.561,3.116,3.121-6.232,6.242-18.695-15.6v-3.121Z" transform="translate(-284 -280)"/>
    <path class="cls-2" d="M388.367,280h9.38v31.187h-9.38V280Z" transform="translate(-284 -280)"/>
    <path id="Rectangle_1_copy_3" data-name="Rectangle 1 copy 3" class="cls-2" d="M377.486,303.406h31.141v7.781H377.486v-7.781Z" transform="translate(-284 -280)"/>
    <path id="Rectangle_1_copy" data-name="Rectangle 1 copy" class="cls-2" d="M374.328,292.469h9.38v18.718h-9.38V292.469Z" transform="translate(-284 -280)"/>
    <path id="Rectangle_1_copy_2" data-name="Rectangle 1 copy 2" class="cls-2" d="M402.405,292.469h9.349v18.718h-9.349V292.469Z" transform="translate(-284 -280)"/>
  </g>
  <path class="cls-3" d="M332.291,342.415s1.558,28.346,37.391,34.328c1.038,0.78,23.369,57.733,23.369,57.733l23.369-59.294s32.717-.26,37.391-32.767c0,0-13.762,20.544-34.275,18.724L393.051,378.3l-26.485-17.164A39.44,39.44,0,0,1,332.291,342.415Z" transform="translate(-284 -280)"/>
  <path class="cls-3" d="M361.892,329.932l6.232-4.681s15.32-2.341,14.021,3.12v31.208L372.8,354.9V334.613Z" transform="translate(-284 -280)"/>
  <path id="Shape_3_copy" data-name="Shape 3 copy" class="cls-3" d="M424.21,330.347l-6.2-4.616s-15.247-2.307-13.955,3.077v30.771l9.3-4.616v-20Z" transform="translate(-284 -280)"/>
</svg>
